<svg width="56" height="56" viewBox="0 0 56 56" fill="none" xmlns="http://www.w3.org/2000/svg">
<path d="M2.33325 2.33331H11.6666L17.9199 33.5766C18.1333 34.6509 18.7177 35.6159 19.5709 36.3027C20.424 36.9895 21.4915 37.3543 22.5866 37.3333H45.2666C46.3616 37.3543 47.4292 36.9895 48.2823 36.3027C49.1355 35.6159 49.7199 34.6509 49.9333 33.5766L53.6666 14H13.9999M23.3333 49C23.3333 50.2886 22.2886 51.3333 20.9999 51.3333C19.7113 51.3333 18.6666 50.2886 18.6666 49C18.6666 47.7113 19.7113 46.6666 20.9999 46.6666C22.2886 46.6666 23.3333 47.7113 23.3333 49ZM48.9999 49C48.9999 50.2886 47.9553 51.3333 46.6666 51.3333C45.3779 51.3333 44.3333 50.2886 44.3333 49C44.3333 47.7113 45.3779 46.6666 46.6666 46.6666C47.9553 46.6666 48.9999 47.7113 48.9999 49Z" stroke="white" stroke-width="4" stroke-linecap="round" stroke-linejoin="round"/>
</svg>
